<?xml version="1.0" standalone="no"?>
<!DOCTYPE svg PUBLIC "-//W3C//DTD SVG 20010904//EN"
 "http://www.w3.org/TR/2001/REC-SVG-20010904/DTD/svg10.dtd">
<svg version="1.0" xmlns="http://www.w3.org/2000/svg"
 width="225.000000pt" height="225.000000pt" viewBox="0 0 225.000000 225.000000"
 preserveAspectRatio="xMidYMid meet">
<metadata>
Created by potrace 1.11, written by Peter Selinger 2001-2013
</metadata>
<g transform="translate(0.000000,225.000000) scale(0.100000,-0.100000)"
fill="#000000" stroke="none">
<path d="M1045 2217 c-43 -43 -47 -87 -11 -140 17 -25 26 -53 28 -89 l3 -53
50 0 50 0 3 54 c2 40 8 59 22 68 29 20 44 76 30 117 -15 47 -42 68 -94 73 -42
5 -48 3 -81 -30z"/>
<path d="M1020 1871 c-223 -42 -367 -142 -450 -316 -55 -113 -72 -189 -79
-349 l-6 -139 -30 -10 c-36 -11 -81 -51 -103 -92 -14 -25 -17 -69 -19 -284 -2
-224 -4 -256 -18 -264 -9 -5 -23 -24 -31 -43 -37 -89 60 -184 144 -140 69 36
83 111 32 169 l-30 35 0 147 0 147 23 -6 c12 -3 25 -6 28 -6 3 0 9 -48 12
-107 3 -76 11 -125 27 -165 30 -80 104 -159 188 -200 l67 -33 324 -3 c303 -3
328 -2 392 18 79 23 139 66 190 134 50 66 70 133 76 253 5 93 7 102 27 107 11
3 24 6 29 6 4 0 7 -66 7 -146 l0 -146 -30 -35 c-41 -46 -41 -100 -1 -145 25
-28 36 -33 75 -33 78 0 129 69 106 141 -6 19 -21 40 -32 48 -19 13 -20 26 -21
267 -2 216 -4 259 -19 284 -24 44 -68 82 -107 92 l-34 9 2 95 c9 426 -220 697
-604 714 -49 2 -110 0 -135 -4z m306 -217 c115 -41 185 -113 218 -224 19 -62
20 -117 5 -157 -31 -83 -94 -100 -289 -78 -120 13 -150 13 -270 -1 -188 -21
-238 -10 -280 59 -28 45 -26 120 4 204 72 200 354 291 612 197z m-37 -718 c22
-26 9 -70 -23 -81 -24 -8 -31 -6 -47 14 -23 28 -24 45 -3 65 19 20 58 21 73 2z
m134 -7 c14 -23 1 -67 -23 -74 -49 -15 -85 29 -60 75 14 25 67 25 83 -1z m121
5 c21 -20 20 -43 -1 -66 -31 -34 -83 -12 -83 36 0 44 52 63 84 30z"/>
<path d="M1380 1433 c-63 -23 -82 -104 -34 -142 80 -63 179 38 112 113 -25 26
-54 37 -78 29z"/>
<path d="M782 1407 c-47 -50 -10 -137 58 -137 69 0 107 91 57 138 -32 30 -87
29 -115 -1z"/>
<path d="M860 180 c0 -38 78 -124 139 -155 80 -40 205 -29 281 26 43 31 100
103 100 126 0 10 -48 13 -260 13 -175 0 -260 -3 -260 -10z"/>
</g>
</svg>
